<svg xmlns="http://www.w3.org/2000/svg" viewBox="7.45 19.14 845 553"><path fill="#76CABC" d="M558 198.98h17.41v17.54H558z"/><path fill="#BBE4B5" d="M331.62 198.98h17.41v17.54h-17.41z"/><path fill="#D3EEB3" d="M418.69 198.98h17.41v17.54h-17.41z"/><path fill="#DAF1B2" d="M575.42 198.98h17.41v17.54h-17.41z"/><path fill="#ABDEB7" d="M349.03 198.98h17.41v17.54h-17.41z"/><path fill="#CCEBB4" d="M140.07 198.98h17.41v17.54h-17.41z"/><path fill="#D5EEB3" d="M436.1 198.98h17.41v17.54H436.1z"/><path fill="#C9EAB4" d="M523.17 198.98h17.41v17.54h-17.41z"/><path fill="#FFFFD8" d="M261.96 198.98h17.41v17.54h-17.41zM279.38 198.98h17.41v17.54h-17.41z"/><path fill="#77CABC" d="M296.79 198.98h17.41v17.54h-17.41z"/><path fill="#88D1BA" d="M679.9 198.98h17.41v17.54H679.9z"/><path fill="#8DD3BA" d="M470.93 198.98h17.41v17.54h-17.41z"/><path fill="#FFFFD9" d="M244.55 198.98h17.41v17.54h-17.41zM209.72 198.98h17.41v17.54h-17.41z"/><path fill="#FFFFD8" d="M227.14 198.98h17.41v17.54h-17.41z"/><path fill="#FEFFD7" d="M192.31 198.98h17.41v17.54h-17.41z"/><path fill="#ABDEB7" d="M314.21 198.98h17.41v17.54h-17.41z"/><path fill="#FFFFD8" d="M697.32 198.98h17.41v17.54h-17.41z"/><path fill="#98D7B9" d="M488.35 198.98h17.41v17.54h-17.41z"/><path fill="#9CD8B8" d="M505.76 198.98h17.41v17.54h-17.41z"/><path fill="#225EA8" d="M610.24 198.98h17.41v17.54h-17.41z"/><path fill="#216BAE" d="M627.66 198.98h17.41v17.54h-17.41z"/><path fill="#0C2C84" d="M105.24 198.98h17.41v17.54h-17.41z"/><path fill="#1C509E" d="M645.07 198.98h17.41v17.54h-17.41z"/><path fill="#0F3389" d="M592.83 198.98h17.41v17.54h-17.41z"/><path fill="#1A4C9B" d="M662.49 198.98h17.41v17.54h-17.41z"/><path fill="#A5DCB7" d="M122.65 198.98h17.41v17.54h-17.41z"/><path fill="#DAF1B2" d="M157.48 198.98h17.41v17.54h-17.41z"/><path fill="#DAF0B3" d="M453.52 198.98h17.41v17.54h-17.41z"/><path fill="#D1EDB3" d="M401.28 198.98h17.41v17.54h-17.41z"/><path fill="#E1F3B2" d="M366.45 198.98h17.41v17.54h-17.41z"/><path fill="#CCEBB4" d="M540.59 198.98H558v17.54h-17.41z"/><path fill="#D9F0B3" d="M383.86 198.98h17.41v17.54h-17.41z"/><path fill="#EEF9B4" d="M174.89 198.98h17.41v17.54h-17.41z"/><path fill="#E9F6B1" d="M558 251.6h17.41v17.54H558z"/><path fill="#EFF9B5" d="M331.62 251.6h17.41v17.54h-17.41z"/><path fill="#F2FABC" d="M418.69 251.6h17.41v17.54h-17.41z"/><path fill="#F5FBC3" d="M575.42 251.6h17.41v17.54h-17.41zM349.03 251.6h17.41v17.54h-17.41z"/><path fill="#0C2C84" d="M140.07 251.6h17.41v17.54h-17.41z"/><path fill="#F3FABF" d="M436.1 251.6h17.41v17.54H436.1z"/><path fill="#F3FABD" d="M523.17 251.6h17.41v17.54h-17.41z"/><path fill="#FEFFD8" d="M261.96 251.6h17.41v17.54h-17.41zM279.38 251.6h17.41v17.54h-17.41z"/><path fill="#F6FBC5" d="M296.79 251.6h17.41v17.54h-17.41z"/><path fill="#F8FCC9" d="M679.9 251.6h17.41v17.54H679.9z"/><path fill="#F5FBC2" d="M470.93 251.6h17.41v17.54h-17.41z"/><path fill="#FFFFD9" d="M244.55 251.6h17.41v17.54h-17.41zM209.72 251.6h17.41v17.54h-17.41zM227.14 251.6h17.41v17.54h-17.41z"/><path fill="#FBFDD0" d="M192.31 251.6h17.41v17.54h-17.41z"/><path fill="#F4FBC1" d="M314.21 251.6h17.41v17.54h-17.41z"/><path fill="#FFFFD9" d="M697.32 251.6h17.41v17.54h-17.41z"/><path fill="#F7FCC8" d="M488.35 251.6h17.41v17.54h-17.41z"/><path fill="#F4FBC0" d="M505.76 251.6h17.41v17.54h-17.41z"/><path fill="#C8E9B4" d="M610.24 251.6h17.41v17.54h-17.41z"/><path fill="#C9EAB4" d="M627.66 251.6h17.41v17.54h-17.41z"/><path fill="#A9DDB7" d="M105.24 251.6h17.41v17.54h-17.41z"/><path fill="#C3E8B4" d="M645.07 251.6h17.41v17.54h-17.41z"/><path fill="#CCEBB4" d="M592.83 251.6h17.41v17.54h-17.41z"/><path fill="#C7E9B4" d="M662.49 251.6h17.41v17.54h-17.41z"/><path fill="#AEDFB6" d="M122.65 251.6h17.41v17.54h-17.41z"/><path fill="#2263AA" d="M157.48 251.6h17.41v17.54h-17.41z"/><path fill="#F6FCC6" d="M453.52 251.6h17.41v17.54h-17.41z"/><path fill="#F6FBC5" d="M401.28 251.6h17.41v17.54h-17.41z"/><path fill="#F6FBC4" d="M366.45 251.6h17.41v17.54h-17.41z"/><path fill="#F4FBC1" d="M540.59 251.6H558v17.54h-17.41z"/><path fill="#F5FBC3" d="M383.86 251.6h17.41v17.54h-17.41z"/><path fill="#F9FDCB" d="M174.89 251.6h17.41v17.54h-17.41z"/><path fill="#E0F3B2" d="M558 163.9h17.41v17.54H558z"/><path fill="#AADEB7" d="M331.62 163.9h17.41v17.54h-17.41z"/><path fill="#FAFDCE" d="M418.69 163.9h17.41v17.54h-17.41z"/><path fill="#EAF7B1" d="M575.42 163.9h17.41v17.54h-17.41z"/><path fill="#BCE5B5" d="M349.03 163.9h17.41v17.54h-17.41z"/><path fill="#F3FABF" d="M140.07 163.9h17.41v17.54h-17.41z"/><path fill="#F9FDCD" d="M436.1 163.9h17.41v17.54H436.1z"/><path fill="#E3F4B2" d="M523.17 163.9h17.41v17.54h-17.41z"/><path fill="#FEFFD7" d="M261.96 163.9h17.41v17.54h-17.41z"/><path fill="#FFFFD8" d="M279.38 163.9h17.41v17.54h-17.41z"/><path fill="#F6FBC4" d="M296.79 163.9h17.41v17.54h-17.41z"/><path fill="#F4FBC0" d="M679.9 163.9h17.41v17.54H679.9z"/><path fill="#F6FCC5" d="M470.93 163.9h17.41v17.54h-17.41z"/><path fill="#FFFFD9" d="M244.55 163.9h17.41v17.54h-17.41zM209.72 163.9h17.41v17.54h-17.41z"/><path fill="#FEFFD8" d="M227.14 163.9h17.41v17.54h-17.41z"/><path fill="#FFFFD9" d="M192.31 163.9h17.41v17.54h-17.41z"/><path fill="#F7FCC7" d="M314.21 163.9h17.41v17.54h-17.41z"/><path fill="#FFFFD9" d="M697.32 163.9h17.41v17.54h-17.41z"/><path fill="#F8FCCA" d="M488.35 163.9h17.41v17.54h-17.41z"/><path fill="#FAFDCF" d="M505.76 163.9h17.41v17.54h-17.41z"/><path fill="#83CEBB" d="M610.24 163.9h17.41v17.54h-17.41z"/><path fill="#A9DDB7" d="M627.66 163.9h17.41v17.54h-17.41z"/><path fill="#0C2C84" d="M105.24 163.9h17.41v17.54h-17.41z"/><path fill="#34A8C3" d="M645.07 163.9h17.41v17.54h-17.41z"/><path fill="#CCEBB4" d="M592.83 163.9h17.41v17.54h-17.41z"/><path fill="#90D4B9" d="M662.49 163.9h17.41v17.54h-17.41z"/><path fill="#CBEBB4" d="M122.65 163.9h17.41v17.54h-17.41z"/><path fill="#F6FCC5" d="M157.48 163.9h17.41v17.54h-17.41z"/><path fill="#FBFED1" d="M453.52 163.9h17.41v17.54h-17.41z"/><path fill="#F2FABD" d="M401.28 163.9h17.41v17.54h-17.41z"/><path fill="#F9FDCC" d="M366.45 163.9h17.41v17.54h-17.41z"/><path fill="#F1FABA" d="M540.59 163.9H558v17.54h-17.41z"/><path fill="#FCFED2" d="M383.86 163.9h17.41v17.54h-17.41z"/><path fill="#FDFED4" d="M174.89 163.9h17.41v17.54h-17.41z"/><path fill="#EDF8B2" d="M558 181.44h17.41v17.54H558z"/><path fill="#F6FCC6" d="M331.62 181.44h17.41v17.54h-17.41z"/><path fill="#F9FDCB" d="M418.69 181.44h17.41v17.54h-17.41z"/><path fill="#F2FABC" d="M575.42 181.44h17.41v17.54h-17.41z"/><path fill="#E3F4B2" d="M349.03 181.44h17.41v17.54h-17.41z"/><path fill="#DEF2B2" d="M140.07 181.44h17.41v17.54h-17.41z"/><path fill="#F2FABD" d="M436.1 181.44h17.41v17.54H436.1z"/><path fill="#CFECB3" d="M523.17 181.44h17.41v17.54h-17.41z"/><path fill="#FFFFD8" d="M261.96 181.44h17.41v17.54h-17.41z"/><path fill="#FEFFD8" d="M279.38 181.44h17.41v17.54h-17.41z"/><path fill="#EBF7B1" d="M296.79 181.44h17.41v17.54h-17.41z"/><path fill="#64C3BF" d="M679.9 181.44h17.41v17.54H679.9z"/><path fill="#E4F5B2" d="M470.93 181.44h17.41v17.54h-17.41z"/><path fill="#FFFFD9" d="M244.55 181.44h17.41v17.54h-17.41zM209.72 181.44h17.41v17.54h-17.41z"/><path fill="#FFFFD8" d="M227.14 181.44h17.41v17.54h-17.41zM192.31 181.44h17.41v17.54h-17.41z"/><path fill="#E0F3B2" d="M314.21 181.44h17.41v17.54h-17.41z"/><path fill="#FFFFD9" d="M697.32 181.44h17.41v17.54h-17.41z"/><path fill="#EDF8B1" d="M488.35 181.44h17.41v17.54h-17.41z"/><path fill="#D5EFB3" d="M505.76 181.44h17.41v17.54h-17.41z"/><path fill="#CFECB3" d="M610.24 181.44h17.41v17.54h-17.41z"/><path fill="#CAEAB4" d="M627.66 181.44h17.41v17.54h-17.41z"/><path fill="#0C2C84" d="M105.24 181.44h17.41v17.54h-17.41z"/><path fill="#2498C1" d="M645.07 181.44h17.41v17.54h-17.41z"/><path fill="#C5E8B4" d="M592.83 181.44h17.41v17.54h-17.41z"/><path fill="#7CCCBB" d="M662.49 181.44h17.41v17.54h-17.41z"/><path fill="#39ADC3" d="M122.65 181.44h17.41v17.54h-17.41z"/><path fill="#DDF2B2" d="M157.48 181.44h17.41v17.54h-17.41z"/><path fill="#F5FBC4" d="M453.52 181.44h17.41v17.54h-17.41z"/><path fill="#E1F3B2" d="M401.28 181.44h17.41v17.54h-17.41z"/><path fill="#F4FBC0" d="M366.45 181.44h17.41v17.54h-17.41z"/><path fill="#DEF2B2" d="M540.59 181.44H558v17.54h-17.41z"/><path fill="#F6FCC5" d="M383.86 181.44h17.41v17.54h-17.41z"/><path fill="#F9FDCD" d="M174.89 181.44h17.41v17.54h-17.41z"/><path fill="#78CBBC" d="M558 216.52h17.41v17.54H558z"/><path fill="#2BA0C2" d="M331.62 216.52h17.41v17.54h-17.41z"/><path fill="#EEF8B2" d="M418.69 216.52h17.41v17.54h-17.41z"/><path fill="#46B8C3" d="M575.42 216.52h17.41v17.54h-17.41z"/><path fill="#3EB2C4" d="M349.03 216.52h17.41v17.54h-17.41z"/><path fill="#FDFED5" d="M140.07 216.52h17.41v17.54h-17.41z"/><path fill="#F1F9B9" d="M436.1 216.52h17.41v17.54H436.1z"/><path fill="#A0DAB8" d="M523.17 216.52h17.41v17.54h-17.41z"/><path fill="#FFFFD9" d="M261.96 216.52h17.41v17.54h-17.41z"/><path fill="#FFFFD8" d="M279.38 216.52h17.41v17.54h-17.41z"/><path fill="#1E84BA" d="M296.79 216.52h17.41v17.54h-17.41z"/><path fill="#1F79B5" d="M679.9 216.52h17.41v17.54H679.9z"/><path fill="#DFF3B2" d="M470.93 216.52h17.41v17.54h-17.41z"/><path fill="#FFFFD9" d="M244.55 216.52h17.41v17.54h-17.41zM209.72 216.52h17.41v17.54h-17.41z"/><path fill="#FFFFD8" d="M227.14 216.52h17.41v17.54h-17.41z"/><path fill="#FFFFD9" d="M192.31 216.52h17.41v17.54h-17.41z"/><path fill="#1F81B9" d="M314.21 216.52h17.41v17.54h-17.41z"/><path fill="#FEFFD6" d="M697.32 216.52h17.41v17.54h-17.41z"/><path fill="#AADEB7" d="M488.35 216.52h17.41v17.54h-17.41z"/><path fill="#94D5B9" d="M505.76 216.52h17.41v17.54h-17.41z"/><path fill="#9BD8B8" d="M610.24 216.52h17.41v17.54h-17.41z"/><path fill="#B6E2B6" d="M627.66 216.52h17.41v17.54h-17.41z"/><path fill="#1F7EB7" d="M105.24 216.52h17.41v17.54h-17.41z"/><path fill="#66C4BF" d="M645.07 216.52h17.41v17.54h-17.41z"/><path fill="#48B8C3" d="M592.83 216.52h17.41v17.54h-17.41z"/><path fill="#0C2C84" d="M662.49 216.52h17.41v17.54h-17.41z"/><path fill="#E8F6B1" d="M122.65 216.52h17.41v17.54h-17.41z"/><path fill="#FEFFD7" d="M157.48 216.52h17.41v17.54h-17.41z"/><path fill="#E4F5B2" d="M453.52 216.52h17.41v17.54h-17.41z"/><path fill="#ECF8B1" d="M401.28 216.52h17.41v17.54h-17.41z"/><path fill="#A4DBB7" d="M366.45 216.52h17.41v17.54h-17.41z"/><path fill="#AEDFB6" d="M540.59 216.52H558v17.54h-17.41z"/><path fill="#CCEBB4" d="M383.86 216.52h17.41v17.54h-17.41z"/><path fill="#F6FBC5" d="M174.89 216.52h17.41v17.54h-17.41z"/><path fill="#FFFFD9" d="M558 286.68h17.41v17.54H558zM331.62 286.68h17.41v17.54h-17.41z"/><path fill="#FEFFD8" d="M418.69 286.68h17.41v17.54h-17.41z"/><path fill="#F7FCC8" d="M575.42 286.68h17.41v17.54h-17.41z"/><path fill="#F1F9B9" d="M349.03 286.68h17.41v17.54h-17.41z"/><path fill="#3FB4C4" d="M140.07 286.68h17.41v17.54h-17.41z"/><path fill="#FFFFD9" d="M436.1 286.68h17.41v17.54H436.1z"/><path fill="#FAFDCF" d="M523.17 286.68h17.41v17.54h-17.41z"/><path fill="#FFFFD9" d="M261.96 286.68h17.41v17.54h-17.41zM279.38 286.68h17.41v17.54h-17.41zM296.79 286.68h17.41v17.54h-17.41z"/><path fill="#FEFFD6" d="M679.9 286.68h17.41v17.54H679.9z"/><path fill="#FFFFD9" d="M470.93 286.68h17.41v17.54h-17.41zM244.55 286.68h17.41v17.54h-17.41zM209.72 286.68h17.41v17.54h-17.41z"/><path fill="#FFFFD8" d="M227.14 286.68h17.41v17.54h-17.41z"/><path fill="#FFFFD9" d="M192.31 286.68h17.41v17.54h-17.41zM314.21 286.68h17.41v17.54h-17.41z"/><path fill="#FFFFD8" d="M697.32 286.68h17.41v17.54h-17.41z"/><path fill="#FEFFD8" d="M488.35 286.68h17.41v17.54h-17.41z"/><path fill="#FEFFD7" d="M505.76 286.68h17.41v17.54h-17.41z"/><path fill="#FEFFD8" d="M610.24 286.68h17.41v17.54h-17.41zM627.66 286.68h17.41v17.54h-17.41z"/><path fill="#F8FCC9" d="M105.24 286.68h17.41v17.54h-17.41z"/><path fill="#F3FABF" d="M645.07 286.68h17.41v17.54h-17.41z"/><path fill="#FFFFD9" d="M592.83 286.68h17.41v17.54h-17.41z"/><path fill="#FFFFD8" d="M662.49 286.68h17.41v17.54h-17.41z"/><path fill="#0C2C84" d="M122.65 286.68h17.41v17.54h-17.41z"/><path fill="#2498C1" d="M157.48 286.68h17.41v17.54h-17.41z"/><path fill="#FFFFD9" d="M453.52 286.68h17.41v17.54h-17.41z"/><path fill="#FDFED4" d="M401.28 286.68h17.41v17.54h-17.41z"/><path fill="#FFFFD9" d="M366.45 286.68h17.41v17.54h-17.41z"/><path fill="#FFFFD8" d="M540.59 286.68H558v17.54h-17.41z"/><path fill="#FFFFD9" d="M383.86 286.68h17.41v17.54h-17.41zM174.89 286.68h17.41v17.54h-17.41zM558 304.22h17.41v17.54H558zM331.62 304.22h17.41v17.54h-17.41zM418.69 304.22h17.41v17.54h-17.41z"/><path fill="#F5FBC4" d="M575.42 304.22h17.41v17.54h-17.41z"/><path fill="#EDF8B1" d="M349.03 304.22h17.41v17.54h-17.41z"/><path fill="#9BD8B8" d="M140.07 304.22h17.41v17.54h-17.41z"/><path fill="#FFFFD9" d="M436.1 304.22h17.41v17.54H436.1z"/><path fill="#F5FBC3" d="M523.17 304.22h17.41v17.54h-17.41z"/><path fill="#FFFFD9" d="M261.96 304.22h17.41v17.54h-17.41zM279.38 304.22h17.41v17.54h-17.41zM296.79 304.22h17.41v17.54h-17.41z"/><path fill="#FFFFD8" d="M679.9 304.22h17.41v17.54H679.9z"/><path fill="#FFFFD9" d="M470.93 304.22h17.41v17.54h-17.41zM244.55 304.22h17.41v17.54h-17.41zM209.72 304.22h17.41v17.54h-17.41zM227.14 304.22h17.41v17.54h-17.41zM192.31 304.22h17.41v17.54h-17.41zM314.21 304.22h17.41v17.54h-17.41zM697.32 304.22h17.41v17.54h-17.41zM488.35 304.22h17.41v17.54h-17.41z"/><path fill="#FFFFD9" d="M505.76 304.22h17.41v17.54h-17.41zM610.24 304.22h17.41v17.54h-17.41zM627.66 304.22h17.41v17.54h-17.41z"/><path fill="#F2FABC" d="M105.24 304.22h17.41v17.54h-17.41z"/><path fill="#EEF9B4" d="M645.07 304.22h17.41v17.54h-17.41z"/><path fill="#FFFFD9" d="M592.83 304.22h17.41v17.54h-17.41z"/><path fill="#FEFFD6" d="M662.49 304.22h17.41v17.54h-17.41z"/><path fill="#0C2C84" d="M122.65 304.22h17.41v17.54h-17.41z"/><path fill="#D5EFB3" d="M157.48 304.22h17.41v17.54h-17.41z"/><path fill="#FFFFD9" d="M453.52 304.22h17.41v17.54h-17.41z"/><path fill="#FBFDD0" d="M401.28 304.22h17.41v17.54h-17.41z"/><path fill="#FFFFD9" d="M366.45 304.22h17.41v17.54h-17.41z"/><path fill="#FDFED4" d="M540.59 304.22H558v17.54h-17.41z"/><path fill="#FFFFD9" d="M383.86 304.22h17.41v17.54h-17.41zM174.89 304.22h17.41v17.54h-17.41zM558 269.14h17.41v17.54H558z"/><path fill="#F3FABF" d="M331.62 269.14h17.41v17.54h-17.41z"/><path fill="#FEFFD8" d="M418.69 269.14h17.41v17.54h-17.41z"/><path fill="#F6FBC4" d="M575.42 269.14h17.41v17.54h-17.41z"/><path fill="#F7FCC7" d="M349.03 269.14h17.41v17.54h-17.41z"/><path fill="#1E85BA" d="M140.07 269.14h17.41v17.54h-17.41z"/><path fill="#FFFFD8" d="M436.1 269.14h17.41v17.54H436.1z"/><path fill="#F8FCC9" d="M523.17 269.14h17.41v17.54h-17.41z"/><path fill="#FFFFD9" d="M261.96 269.14h17.41v17.54h-17.41zM279.38 269.14h17.41v17.54h-17.41z"/><path fill="#FFFFD8" d="M296.79 269.14h17.41v17.54h-17.41z"/><path fill="#FEFFD8" d="M679.9 269.14h17.41v17.54H679.9z"/><path fill="#FEFFD7" d="M470.93 269.14h17.41v17.54h-17.41z"/><path fill="#FFFFD9" d="M244.55 269.14h17.41v17.54h-17.41zM209.72 269.14h17.41v17.54h-17.41zM227.14 269.14h17.41v17.54h-17.41z"/><path fill="#FFFFD8" d="M192.31 269.14h17.41v17.54h-17.41z"/><path fill="#FEFFD7" d="M314.21 269.14h17.41v17.54h-17.41z"/><path fill="#FFFFD9" d="M697.32 269.14h17.41v17.54h-17.41zM488.35 269.14h17.41v17.54h-17.41z"/><path fill="#FFFFD8" d="M505.76 269.14h17.41v17.54h-17.41z"/><path fill="#FFFFD9" d="M610.24 269.14h17.41v17.54h-17.41zM627.66 269.14h17.41v17.54h-17.41z"/><path fill="#F8FCC9" d="M105.24 269.14h17.41v17.54h-17.41z"/><path fill="#FAFDCD" d="M645.07 269.14h17.41v17.54h-17.41z"/><path fill="#FFFFD9" d="M592.83 269.14h17.41v17.54h-17.41z"/><path fill="#FEFED6" d="M662.49 269.14h17.41v17.54h-17.41z"/><path fill="#41B6C4" d="M122.65 269.14h17.41v17.54h-17.41z"/><path fill="#0C2C84" d="M157.48 269.14h17.41v17.54h-17.41z"/><path fill="#FFFFD8" d="M453.52 269.14h17.41v17.54h-17.41z"/><path fill="#FDFED4" d="M401.28 269.14h17.41v17.54h-17.41z"/><path fill="#FEFFD8" d="M366.45 269.14h17.41v17.54h-17.41z"/><path fill="#FDFED4" d="M540.59 269.14H558v17.54h-17.41z"/><path fill="#FFFFD8" d="M383.86 269.14h17.41v17.54h-17.41z"/><path fill="#FEFFD8" d="M174.89 269.14h17.41v17.54h-17.41z"/><path fill="#F0F9B8" d="M558 234.06h17.41v17.54H558z"/><path fill="#EEF9B4" d="M331.62 234.06h17.41v17.54h-17.41z"/><path fill="#C9EAB4" d="M418.69 234.06h17.41v17.54h-17.41z"/><path fill="#F0F9B7" d="M575.42 234.06h17.41v17.54h-17.41z"/><path fill="#DFF3B2" d="M349.03 234.06h17.41v17.54h-17.41z"/><path fill="#F4FBC0" d="M140.07 234.06h17.41v17.54h-17.41z"/><path fill="#E5F5B2" d="M436.1 234.06h17.41v17.54H436.1z"/><path fill="#EFF9B6" d="M523.17 234.06h17.41v17.54h-17.41z"/><path fill="#A8DDB7" d="M261.96 234.06h17.41v17.54h-17.41z"/><path fill="#A2DBB8" d="M279.38 234.06h17.41v17.54h-17.41z"/><path fill="#D5EFB3" d="M296.79 234.06h17.41v17.54h-17.41z"/><path fill="#0C2C84" d="M679.9 234.06h17.41v17.54H679.9z"/><path fill="#F1FABB" d="M470.93 234.06h17.41v17.54h-17.41z"/><path fill="#D9F0B3" d="M244.55 234.06h17.41v17.54h-17.41z"/><path fill="#F4FBC0" d="M209.72 234.06h17.41v17.54h-17.41zM227.14 234.06h17.41v17.54h-17.41z"/><path fill="#FFFFD9" d="M192.31 234.06h17.41v17.54h-17.41z"/><path fill="#DEF2B2" d="M314.21 234.06h17.41v17.54h-17.41z"/><path fill="#154092" d="M697.32 234.06h17.41v17.54h-17.41z"/><path fill="#CAEAB4" d="M488.35 234.06h17.41v17.54h-17.41z"/><path fill="#D9F0B3" d="M505.76 234.06h17.41v17.54h-17.41z"/><path fill="#FFFFD8" d="M610.24 234.06h17.41v17.54h-17.41zM627.66 234.06h17.41v17.54h-17.41z"/><path fill="#FEFFD8" d="M105.24 234.06h17.41v17.54h-17.41z"/><path fill="#FFFFD8" d="M645.07 234.06h17.41v17.54h-17.41z"/><path fill="#FFFFD9" d="M592.83 234.06h17.41v17.54h-17.41z"/><path fill="#FEFFD7" d="M662.49 234.06h17.41v17.54h-17.41z"/><path fill="#F9FDCC" d="M122.65 234.06h17.41v17.54h-17.41z"/><path fill="#F6FBC5" d="M157.48 234.06h17.41v17.54h-17.41z"/><path fill="#EEF9B4" d="M453.52 234.06h17.41v17.54h-17.41z"/><path fill="#EEF8B3" d="M401.28 234.06h17.41v17.54h-17.41z"/><path fill="#E9F6B1" d="M366.45 234.06h17.41v17.54h-17.41z"/><path fill="#EFF9B5" d="M540.59 234.06H558v17.54h-17.41z"/><path fill="#ECF8B1" d="M383.86 234.06h17.41v17.54h-17.41z"/><path fill="#DEF2B2" d="M174.89 234.06h17.41v17.54h-17.41z"/><g transform="translate(120 575)"><linearGradient id="a" gradientUnits="userSpaceOnUse" x1="-119.6" y1="19.16" x2="-118.6" y2="19.16" gradientTransform="matrix(605.1082 0 0 -17.5394 72354.4 301.98)"><stop offset="0" stop-color="#ffffd9"/><stop offset=".09" stop-color="#f2fabd"/><stop offset=".18" stop-color="#def2b2"/><stop offset=".27" stop-color="#c0e6b5"/><stop offset=".36" stop-color="#8dd3ba"/><stop offset=".45" stop-color="#60c2c0"/><stop offset=".55" stop-color="#3aafc3"/><stop offset=".64" stop-color="#2195c0"/><stop offset=".73" stop-color="#2072b2"/><stop offset=".82" stop-color="#1b4f9d"/><stop offset=".91" stop-color="#0c2c84"/></linearGradient><path fill="url(#a)" stroke="#333" d="M-14.76-42.77h605.11v17.54H-14.76z"/><path fill="none" stroke="#333" stroke-dasharray="4,12,4" d="M-14.76-42.77v17.54"/><path fill="none" stroke="#333" stroke-opacity=".25" stroke-dasharray="3,14,3" d="M45.75-42.77v17.54M106.26-42.77v17.54M166.77-42.77v17.54M227.28-42.77v17.54M287.79-42.77v17.54M348.3-42.77v17.54M408.81-42.77v17.54M469.32-42.77v17.54M529.83-42.77v17.54M590.34-42.77v17.54"/><text transform="translate(-17.2 -16.46)" font-family="'Arial'" font-size="8.77">0</text><text transform="translate(39.65 -16.46)" font-family="'Arial'" font-size="8.77">0.1</text><text transform="translate(100.16 -16.46)" font-family="'Arial'" font-size="8.77">0.2</text><text transform="translate(160.67 -16.46)" font-family="'Arial'" font-size="8.77">0.3</text><text transform="translate(221.18 -16.46)" font-family="'Arial'" font-size="8.77">0.4</text><text transform="translate(281.7 -16.46)" font-family="'Arial'" font-size="8.77">0.5</text><text transform="translate(342.2 -16.46)" font-family="'Arial'" font-size="8.77">0.6</text><text transform="translate(402.72 -16.46)" font-family="'Arial'" font-size="8.77">0.7</text><text transform="translate(463.23 -16.46)" font-family="'Arial'" font-size="8.77">0.8</text><text transform="translate(523.74 -16.46)" font-family="'Arial'" font-size="8.77">0.9</text><text transform="translate(587.9 -16.46)" font-family="'Arial'" font-size="8.77">1</text></g><text transform="translate(105.24 527.85)" font-family="'Arial'" font-size="8.77">Relative expression</text><path fill="none" stroke="#333" d="M566.71 321.76v2.63"/><text transform="rotate(90 117.21 445.99)" font-family="'Arial'" font-size="7.02">ZON_1hr_mock</text><path fill="none" stroke="#333" d="M340.33 321.76v2.63"/><text transform="rotate(90 4.02 332.8)" font-family="'Arial'" font-size="7.02">ZON_1hr_BA</text><path fill="none" stroke="#333" d="M427.4 321.76v2.63"/><text transform="rotate(90 47.56 376.33)" font-family="'Arial'" font-size="7.02">ZON_24hr_mock</text><path fill="none" stroke="#333" d="M584.12 321.76v2.63"/><text transform="rotate(90 125.92 454.7)" font-family="'Arial'" font-size="7.02">ZON_24hr_BA</text><path fill="none" stroke="#333" d="M357.74 321.76v2.63"/><text transform="rotate(90 12.73 341.5)" font-family="'Arial'" font-size="7.02">ZON_24hr_R7A</text><path fill="none" stroke="#333" d="M148.77 321.76v2.63"/><text transform="rotate(90 -91.75 237.02)" font-family="'Arial'" font-size="7.02">Nodules_10dpi</text><path fill="none" stroke="#333" d="M444.81 321.76v2.63"/><text transform="rotate(90 56.26 385.04)" font-family="'Arial'" font-size="7.02">3dpi_root_mock</text><path fill="none" stroke="#333" d="M531.88 321.76v2.63"/><text transform="rotate(90 99.8 428.57)" font-family="'Arial'" font-size="7.02">3dpi_root_R7A</text><path fill="none" stroke="#333" d="M270.67 321.76v2.63"/><text transform="rotate(90 -30.8 297.97)" font-family="'Arial'" font-size="7.02">3dpi_shoot_mock</text><path fill="none" stroke="#333" d="M288.08 321.76v2.63"/><text transform="rotate(90 -22.1 306.67)" font-family="'Arial'" font-size="7.02">3dpi_shoot_R7A</text><path fill="none" stroke="#333" d="M305.5 321.76v2.63"/><text transform="rotate(90 -13.4 315.38)" font-family="'Arial'" font-size="7.02">AM_15dpi</text><path fill="none" stroke="#333" d="M688.6 321.76v2.63"/><text transform="rotate(90 178.16 506.94)" font-family="'Arial'" font-size="7.02">AM_27dpi</text><path fill="none" stroke="#333" d="M479.64 321.76v2.63"/><text transform="rotate(90 73.68 402.45)" font-family="'Arial'" font-size="7.02">AM_mock_15d</text><path fill="none" stroke="#333" d="M253.26 321.76v2.63"/><text transform="rotate(90 -39.51 289.26)" font-family="'Arial'" font-size="7.02">Mature_flower</text><path fill="none" stroke="#333" d="M218.43 321.76v2.63"/><text transform="rotate(90 -56.93 271.85)" font-family="'Arial'" font-size="7.02">Immature_flower</text><path fill="none" stroke="#333" d="M235.84 321.76v2.63"/><text transform="rotate(90 -48.22 280.55)" font-family="'Arial'" font-size="7.02">Pod</text><path fill="none" stroke="#333" d="M201.01 321.76v2.63"/><text transform="rotate(90 -65.63 263.14)" font-family="'Arial'" font-size="7.02">Seed</text><path fill="none" stroke="#333" d="M322.91 321.76v2.63"/><text transform="rotate(90 -4.68 324.09)" font-family="'Arial'" font-size="7.02">Root</text><g><path fill="none" stroke="#333" d="M706.02 321.76v2.63"/><text transform="rotate(90 186.87 515.64)" font-family="'Arial'" font-size="7.02">Leaf</text></g><g><path fill="none" stroke="#333" d="M497.06 321.76v2.63"/><text transform="rotate(90 82.39 411.16)" font-family="'Arial'" font-size="7.02">AM_mock_27d_P</text></g><g><path fill="none" stroke="#333" d="M514.46 321.76v2.63"/><text transform="rotate(90 91.1 419.87)" font-family="'Arial'" font-size="7.02">AM_mock_27d</text></g><g><path fill="none" stroke="#333" d="M618.96 321.76v2.63"/><text transform="rotate(90 143.34 472.1)" font-family="'Arial'" font-size="7.02">Root_hair_mock_rhizobia</text></g><g><path fill="none" stroke="#333" d="M636.36 321.76v2.63"/><text transform="rotate(90 152.04 480.82)" font-family="'Arial'" font-size="7.02">Root_hair_nodC_24hr</text></g><g><path fill="none" stroke="#333" d="M113.95 321.76v2.63"/><text transform="rotate(90 -109.17 219.6)" font-family="'Arial'" font-size="7.02">Root_hair_R7A_24hr</text></g><g><path fill="none" stroke="#333" d="M653.78 321.76v2.63"/><text transform="rotate(90 160.75 489.52)" font-family="'Arial'" font-size="7.02">Root_hair_R7A_72hr</text></g><g><path fill="none" stroke="#333" d="M601.54 321.76v2.63"/><text transform="rotate(90 134.63 463.4)" font-family="'Arial'" font-size="7.02">Root_hair_mock_NF</text></g><g><path fill="none" stroke="#333" d="M671.2 321.76v2.63"/><text transform="rotate(90 169.46 498.23)" font-family="'Arial'" font-size="7.02">Root_hair_NF_24hr</text></g><g><path fill="none" stroke="#333" d="M131.36 321.76v2.63"/><text transform="rotate(90 -100.46 228.31)" font-family="'Arial'" font-size="7.02">Nodule_primordia_7dpi</text></g><g><path fill="none" stroke="#333" d="M166.19 321.76v2.63"/><text transform="rotate(90 -83.05 245.73)" font-family="'Arial'" font-size="7.02">Nodules_21dpi</text></g><g><path fill="none" stroke="#333" d="M462.22 321.76v2.63"/><text transform="rotate(90 64.97 393.75)" font-family="'Arial'" font-size="7.02">Root_mock_microbialspectrum</text></g><g><path fill="none" stroke="#333" d="M409.98 321.76v2.63"/><text transform="rotate(90 38.85 367.62)" font-family="'Arial'" font-size="7.02">M_loti_R7A_3dpi</text></g><g><path fill="none" stroke="#333" d="M375.16 321.76v2.63"/><text transform="rotate(90 21.44 350.21)" font-family="'Arial'" font-size="7.02">Bradyrhizobium_elkanii_USDA61_3dpi</text></g><g><path fill="none" stroke="#333" d="M549.3 321.76v2.63"/><text transform="rotate(90 108.5 437.28)" font-family="'Arial'" font-size="7.02">Sinorhizobium_fredii_HH103_3dpi</text></g><g><path fill="none" stroke="#333" d="M392.57 321.76v2.63"/><text transform="rotate(90 30.14 358.92)" font-family="'Arial'" font-size="7.02">Pseudomonas_syringae_pv_tomato_DC3000_3dpi</text></g><g><path fill="none" stroke="#333" d="M183.6 321.76v2.63"/><text transform="rotate(90 -74.34 254.43)" font-family="'Arial'" font-size="7.02">Ralstonia_solanacearum_JS763_3dpi</text></g><path stroke="#333" d="M105.24 321.76h609.49"/><g><path fill="none" d="M105.24 207.75"/><text transform="translate(21.66 210.56)" font-family="'Arial'" font-size="8.77">LotjaGi3g1v0307700</text><path fill="none" d="M105.24 260.37"/><text transform="translate(21.66 263.18)" font-family="'Arial'" font-size="8.77">LotjaGi2g1v0343300</text><path fill="none" d="M105.24 172.67"/><text transform="translate(21.66 175.48)" font-family="'Arial'" font-size="8.77">LotjaGi1g1v0643700</text><path fill="none" d="M105.24 190.21"/><text transform="translate(21.66 193.02)" font-family="'Arial'" font-size="8.77">LotjaGi3g1v0414350</text><path fill="none" d="M105.24 225.29"/><text transform="translate(21.66 228.1)" font-family="'Arial'" font-size="8.77">LotjaGi1g1v0257100</text><g><path fill="none" d="M105.24 295.45"/><text transform="translate(21.66 298.25)" font-family="'Arial'" font-size="8.77">LotjaGi4g1v0343900</text></g><g><path fill="none" d="M105.24 312.99"/><text transform="translate(21.66 315.8)" font-family="'Arial'" font-size="8.77">LotjaGi5g1v0106700</text></g><g><path fill="none" d="M105.24 277.91"/><text transform="translate(21.66 280.72)" font-family="'Arial'" font-size="8.77">LotjaGi1g1v0001500</text></g><g><path fill="none" d="M105.24 242.83"/><text transform="translate(21.66 245.64)" font-family="'Arial'" font-size="8.77">LotjaGi3g1v0512000</text></g><path stroke="#333" d="M105.24 163.9h0v157.86h0"/></g><path fill="none" stroke="#333" d="M105.24 163.9h609.49M714.73 321.76V163.9"/><path fill="none" stroke="#333" stroke-opacity=".5" stroke-dasharray="2,2" d="M122.65 163.9v157.86M140.07 163.9v157.86M174.89 163.9v157.86M296.79 163.9v157.86M366.45 163.9v157.86M592.83 163.9v157.86M645.07 163.9v157.86M679.9 163.9v157.86M697.32 163.9v157.86M105.24 198.98h609.49M105.24 216.52h609.49M105.24 234.06h609.49M105.24 251.6h609.49M105.24 269.14h609.49M105.24 286.68h609.49"/><g><path fill="#FBB4AE" fill-opacity=".15" d="M719.11 164.78h59.64v33.33h-59.64z"/><path fill="#B3CDE3" fill-opacity=".15" d="M719.11 199.86h59.64v15.79h-59.64z"/><path fill="#CCEBC5" fill-opacity=".15" d="M719.11 217.4h59.64v15.79h-59.64z"/><path fill="#E5D8BD" fill-opacity=".15" d="M719.11 234.94h59.64v15.79h-59.64z"/><path fill="#FFC" fill-opacity=".15" d="M719.11 252.48h59.64v15.79h-59.64z"/><path fill="#FED9A6" fill-opacity=".15" d="M719.11 270.02h59.64v15.79h-59.64z"/><path fill="#DECBE4" fill-opacity=".15" d="M719.11 287.56h59.64v33.32h-59.64z"/><path fill="none" stroke="#CCC" d="M834.01 229.13v-30.15h-24.06M834.01 229.13v30.14h-16.4M809.95 198.98v-17.54h-36.2M809.95 198.98v17.54h-17.61M773.76 181.44v-8.77H723.5"/><path fill="none" stroke="#CCC" d="M773.76 181.44v8.77H723.5M792.34 216.52v-8.77H723.5M792.34 216.52v8.77H723.5M817.61 259.27v-16.44H723.5M817.61 259.27v16.45h-24.58M793.03 275.72v-15.35H723.5M793.03 275.72v15.34h-9.53M783.5 291.06v-13.15h-60M783.5 291.06v13.16h-13.64M769.86 304.22v-8.77H723.5M769.86 304.22v8.77H723.5"/><circle fill="#BBB" stroke="#AAA" cx="-117" cy="-.25" r="4.38" transform="translate(951.02 229.38)"/><circle fill="#BBB" stroke="#AAA" cx="-113.63" cy="3.98" r="3.29" transform="translate(923.58 195)"/><circle fill="#FBB4AE" stroke="#AAA" cx="-108.55" cy="6.44" r="2.85" transform="translate(882.31 175)"/><circle fill="#FBB4AE" stroke="#333" cx="-101.5" cy="7.67" r="2.63" transform="translate(825 165)"/><circle fill="#FBB4AE" stroke="#333" cx="-101.5" cy="5.21" r="2.63" transform="translate(825 185)"/><circle fill="#BBB" stroke="#AAA" cx="-111.16" cy="1.52" r="2.85" transform="translate(903.5 215)"/><circle fill="#B3CDE3" stroke="#333" cx="-101.5" cy="2.75" r="2.63" transform="translate(825 205)"/><circle fill="#CCEBC5" stroke="#333" cx="-101.5" cy=".29" r="2.63" transform="translate(825 225)"/><circle fill="#BBB" stroke="#AAA" cx="-114.7" cy="-4.48" r="3.51" transform="translate(932.32 263.75)"/><circle fill="#E5D8BD" stroke="#333" cx="-101.5" cy="-2.17" r="2.63" transform="translate(825 245)"/><circle fill="#BBB" stroke="#AAA" cx="-111.26" cy="-6.78" r="3.29" transform="translate(904.28 282.5)"/><circle fill="#FFC" stroke="#333" cx="-101.5" cy="-4.63" r="2.63" transform="translate(825 265)"/><circle fill="#BBB" stroke="#AAA" cx="-109.92" cy="-8.94" r="3.07" transform="translate(893.42 300)"/><circle fill="#FED9A6" stroke="#333" cx="-101.5" cy="-7.09" r="2.63" transform="translate(825 285)"/><circle fill="#DECBE4" stroke="#AAA" cx="-108.01" cy="-10.78" r="2.85" transform="translate(877.87 315)"/><circle fill="#DECBE4" stroke="#333" cx="-101.5" cy="-9.55" r="2.63" transform="translate(825 305)"/><circle fill="#DECBE4" stroke="#333" cx="-101.5" cy="-12.01" r="2.63" transform="translate(825 325)"/><path fill="none" stroke="#999" stroke-width="2" stroke-opacity=".5" stroke-dasharray="3,1" d="M778.76 163.9v157.86"/><path fill="none" stroke="#333" d="M723.5 321.76v4.38"/><text transform="translate(721.55 333.75)" font-family="'Arial'" font-size="7.02">0</text><path fill="none" stroke="#333" d="M773.64 321.76v4.38"/><text transform="translate(771.7 333.75)" font-family="'Arial'" font-size="7.02">1</text><path fill="none" stroke="#333" d="M794.42 321.76v4.38"/><text transform="translate(792.47 333.75)" font-family="'Arial'" font-size="7.02">2</text><path fill="none" stroke="#333" d="M810.36 321.76v4.38"/><text transform="translate(808.4 333.75)" font-family="'Arial'" font-size="7.02">3</text><g><path fill="none" stroke="#333" d="M823.8 321.76v4.38"/><text transform="translate(821.84 333.75)" font-family="'Arial'" font-size="7.02">4</text></g><g><path fill="none" stroke="#333" d="M835.64 321.76v4.38"/><text transform="translate(833.68 333.75)" font-family="'Arial'" font-size="7.02">5</text></g><path stroke="#333" d="M723.5 321.76h114"/><text transform="translate(766.61 348.07)" font-family="'Arial'" font-size="8.77">Cluster</text><text transform="translate(764.17 358.6)" font-family="'Arial'" font-size="8.77">distance</text></g><g><path fill="#CCEBC5" fill-opacity=".15" d="M106.11 96.67h15.66v62.85h-15.66z"/><path fill="#B3CDE3" fill-opacity=".15" d="M123.53 96.67h15.66v62.85h-15.66z"/><path fill="#FBB4AE" fill-opacity=".15" d="M140.94 96.67h33.07v62.85h-33.07z"/><path fill="#DECBE4" fill-opacity=".15" d="M175.77 96.67h120.14v62.85H175.77z"/><path fill="#FED9A6" fill-opacity=".15" d="M297.67 96.67h67.9v62.85h-67.9z"/><path fill="#FFC" fill-opacity=".15" d="M367.32 96.67h224.63v62.85H367.32z"/><path fill="#E5D8BD" fill-opacity=".15" d="M593.71 96.67h50.49v62.85h-50.49z"/><path fill="#FDDAEC" fill-opacity=".15" d="M645.95 96.67h33.07v62.85h-33.07z"/><path fill="#F2F2F2" fill-opacity=".15" d="M680.78 96.67h15.66v62.85h-15.66z"/><path fill="#B3CDE3" fill-opacity=".15" d="M698.19 96.67h15.66v62.85h-15.66z"/><path fill="none" stroke="#CCC" d="M308.25 38.2H129.18v29.62M308.25 38.2h179.07v19.78M129.18 67.82h-15.24v87.31"/><path fill="none" stroke="#CCC" d="M129.18 67.82h15.24V91M144.42 91h-13.06v64.13M144.42 91h13.06v27.89M157.48 118.89h-8.7v36.24M157.48 118.89h8.7v36.24M487.32 57.98h-180.6v23.03M487.32 57.98h180.6v9.77M306.72 81.01H211.9v31.76M306.72 81.01h94.83v6.94M211.9 112.77h-28.3v42.36"/><path fill="none" stroke="#CCC" d="M211.9 112.77h28.3v3.07M240.2 115.84h-26.13v16.74M240.2 115.84h26.12v11.55M214.07 132.59h-13.06v22.54M214.07 132.59h13.07v15.84M227.13 148.43h-8.7v6.7M227.13 148.43h8.71v6.7M266.32 127.4h-13.06v27.73M266.32 127.4h13.06v19.18M279.38 146.58h-8.71v8.55M279.38 146.58h8.7v8.55M401.55 87.95h-69.93v27.88M401.55 87.95h69.93v10.58M331.62 115.83H314.2v17.82M331.62 115.83h17.41v9.21M314.2 133.65h-8.7v21.48M314.2 133.65h8.71v21.48M349.03 125.04h-8.7v30.1M349.03 125.04h8.71v30.1M471.48 98.53h-66.94v19.17M471.48 98.53h66.93v11.17M404.54 117.7h-20.68v12.6M404.54 117.7h20.68v5.91M383.86 130.3h-8.7v24.83M383.86 130.3h8.7v24.83M425.22 123.61h-15.24v31.52M425.22 123.61h15.24v4.76M440.46 128.37H427.4v26.76M440.46 128.37h13.06v7.15M453.52 135.52h-8.7v19.61M453.52 135.52h8.7v19.61M538.41 109.7h-37v10.03M538.41 109.7h37v8.07M501.4 119.73h-21.76v35.4M501.4 119.73h21.77v2.5"/><path fill="none" stroke="#CCC" d="M523.17 122.22h-17.41v9.64M523.17 122.22h17.42v4.8M505.76 131.86h-8.7v23.27M505.76 131.86h8.7v23.27M540.59 127.03h-8.7v28.1M540.59 127.03h8.7v28.1M575.42 117.77h-8.71v37.36M575.42 117.77h8.7v37.36M667.93 67.75h-29.39v21.1M667.93 67.75h29.39v20.32M638.54 88.84H614.6v23.92"/><path fill="none" stroke="#CCC" d="M638.54 88.84h23.95v19.68M614.6 112.76h-13.06v42.37M614.6 112.76h13.06v17.05M627.66 129.81h-8.7v25.32M627.66 129.81h8.7v25.32"/><path fill="none" stroke="#CCC" d="M662.49 108.52h-8.71v46.61M662.49 108.52h8.7v46.61M697.32 88.08h-8.71v67.05M697.32 88.08h8.7v67.05"/><circle fill="#BBB" stroke="#AAA" cx="-43.25" cy="26.54" r="4.38" transform="translate(351.5 11.67)"/><circle fill="#BBB" stroke="#AAA" cx="-18.12" cy="22.38" r="2.79" transform="translate(147.3 45.44)"/><circle fill="#CCEBC5" stroke="#333" cx="-15.98" cy="10.13" r="2.63" transform="translate(129.93 145)"/><circle fill="#BBB" stroke="#AAA" cx="-20.26" cy="19.13" r="2.73" transform="translate(164.68 71.87)"/><circle fill="#B3CDE3" stroke="#333" cx="-18.43" cy="10.13" r="2.63" transform="translate(149.79 145)"/><circle fill="#FBB4AE" stroke="#AAA" cx="-22.09" cy="15.22" r="2.68" transform="translate(179.57 103.67)"/><circle fill="#FBB4AE" stroke="#333" cx="-20.87" cy="10.13" r="2.63" transform="translate(169.64 145)"/><circle fill="#FBB4AE" stroke="#333" cx="-23.31" cy="10.13" r="2.63" transform="translate(189.5 145)"/><circle fill="#BBB" stroke="#AAA" cx="-68.37" cy="23.76" r="4.18" transform="translate(555.7 34.22)"/><circle fill="#BBB" stroke="#AAA" cx="-43.03" cy="20.53" r="3.82" transform="translate(349.75 60.48)"/><circle fill="#DECBE4" stroke="#AAA" cx="-29.73" cy="16.08" r="2.94" transform="translate(241.63 96.69)"/><circle fill="#DECBE4" stroke="#333" cx="-25.76" cy="10.13" r="2.63" transform="translate(209.36 145)"/><circle fill="#DECBE4" stroke="#AAA" cx="-33.7" cy="15.64" r="2.89" transform="translate(273.9 100.2)"/><circle fill="#DECBE4" stroke="#AAA" cx="-30.03" cy="13.3" r="2.73" transform="translate(244.1 119.29)"/><circle fill="#DECBE4" stroke="#333" cx="-28.2" cy="10.13" r="2.63" transform="translate(229.21 145)"/><circle fill="#DECBE4" stroke="#AAA" cx="-31.86" cy="11.07" r="2.68" transform="translate(259 137.36)"/><circle fill="#DECBE4" stroke="#333" cx="-30.64" cy="10.13" r="2.63" transform="translate(249.07 145)"/><circle fill="#DECBE4" stroke="#333" cx="-33.09" cy="10.13" r="2.63" transform="translate(268.93 145)"/><circle fill="#DECBE4" stroke="#AAA" cx="-37.36" cy="14.03" r="2.73" transform="translate(303.68 113.37)"/><circle fill="#DECBE4" stroke="#333" cx="-35.53" cy="10.13" r="2.63" transform="translate(288.79 145)"/><circle fill="#DECBE4" stroke="#AAA" cx="-39.19" cy="11.33" r="2.68" transform="translate(318.57 135.24)"/><circle fill="#DECBE4" stroke="#333" cx="-37.97" cy="10.13" r="2.63" transform="translate(308.64 145)"/><circle fill="#DECBE4" stroke="#333" cx="-40.42" cy="10.13" r="2.63" transform="translate(328.5 145)"/><circle fill="#BBB" stroke="#AAA" cx="-56.34" cy="19.56" r="3.46" transform="translate(457.88 68.4)"/><circle fill="#FED9A6" stroke="#AAA" cx="-46.52" cy="15.65" r="2.79" transform="translate(378.14 100.18)"/><circle fill="#FED9A6" stroke="#AAA" cx="-44.08" cy="13.15" r="2.68" transform="translate(358.29 120.5)"/><circle fill="#FED9A6" stroke="#333" cx="-42.86" cy="10.13" r="2.63" transform="translate(348.36 145)"/><circle fill="#FED9A6" stroke="#333" cx="-45.3" cy="10.13" r="2.63" transform="translate(368.21 145)"/><circle fill="#FED9A6" stroke="#AAA" cx="-48.97" cy="14.35" r="2.68" transform="translate(398 110.69)"/><circle fill="#FED9A6" stroke="#333" cx="-47.74" cy="10.13" r="2.63" transform="translate(388.07 145)"/><circle fill="#FED9A6" stroke="#333" cx="-50.19" cy="10.13" r="2.63" transform="translate(407.93 145)"/><circle fill="#FFC" stroke="#AAA" cx="-66.14" cy="18.07" r="3.25" transform="translate(537.62 80.46)"/><circle fill="#FFC" stroke="#AAA" cx="-56.75" cy="15.38" r="2.89" transform="translate(461.3 102.32)"/><circle fill="#FFC" stroke="#AAA" cx="-53.85" cy="13.62" r="2.68" transform="translate(437.71 116.7)"/><circle fill="#FFC" stroke="#333" cx="-52.63" cy="10.13" r="2.63" transform="translate(427.79 145)"/><circle fill="#FFC" stroke="#333" cx="-55.07" cy="10.13" r="2.63" transform="translate(447.64 145)"/><circle fill="#FFC" stroke="#AAA" cx="-59.66" cy="14.55" r="2.79" transform="translate(484.88 109.06)"/><circle fill="#FFC" stroke="#333" cx="-57.52" cy="10.13" r="2.63" transform="translate(467.5 145)"/><circle fill="#FFC" stroke="#AAA" cx="-61.79" cy="13.89" r="2.73" transform="translate(502.25 114.48)"/><circle fill="#FFC" stroke="#333" cx="-59.96" cy="10.13" r="2.63" transform="translate(487.36 145)"/><circle fill="#FFC" stroke="#AAA" cx="-63.63" cy="12.88" r="2.68" transform="translate(517.14 122.64)"/><circle fill="#FFC" stroke="#333" cx="-62.4" cy="10.13" r="2.63" transform="translate(507.21 145)"/><circle fill="#FFC" stroke="#333" cx="-64.85" cy="10.13" r="2.63" transform="translate(527.07 145)"/><circle fill="#FFC" stroke="#AAA" cx="-75.53" cy="16.51" r="2.94" transform="translate(613.95 93.2)"/><circle fill="#FFC" stroke="#AAA" cx="-70.34" cy="15.1" r="2.84" transform="translate(571.75 104.63)"/><circle fill="#FFC" stroke="#333" cx="-67.29" cy="10.13" r="2.63" transform="translate(546.93 145)"/><circle fill="#FFC" stroke="#AAA" cx="-73.4" cy="14.75" r="2.79" transform="translate(596.57 107.47)"/><circle fill="#FFC" stroke="#AAA" cx="-70.95" cy="13.4" r="2.68" transform="translate(576.71 118.46)"/><circle fill="#FFC" stroke="#333" cx="-69.73" cy="10.13" r="2.63" transform="translate(566.79 145)"/><circle fill="#FFC" stroke="#333" cx="-72.18" cy="10.13" r="2.63" transform="translate(586.64 145)"/><circle fill="#FFC" stroke="#AAA" cx="-75.84" cy="14.08" r="2.68" transform="translate(616.43 112.95)"/><circle fill="#FFC" stroke="#333" cx="-74.62" cy="10.13" r="2.63" transform="translate(606.5 145)"/><circle fill="#FFC" stroke="#333" cx="-77.06" cy="10.13" r="2.63" transform="translate(626.36 145)"/><circle fill="#FFC" stroke="#AAA" cx="-80.73" cy="15.37" r="2.68" transform="translate(656.14 102.4)"/><circle fill="#FFC" stroke="#333" cx="-79.5" cy="10.13" r="2.63" transform="translate(646.21 145)"/><circle fill="#FFC" stroke="#333" cx="-81.95" cy="10.13" r="2.63" transform="translate(666.07 145)"/><circle fill="#BBB" stroke="#AAA" cx="-93.7" cy="22.39" r="2.94" transform="translate(761.63 45.36)"/><circle fill="#BBB" stroke="#AAA" cx="-89.58" cy="19.43" r="2.84" transform="translate(728.13 69.4)"/><circle fill="#E5D8BD" stroke="#AAA" cx="-86.22" cy="16.08" r="2.73" transform="translate(700.82 96.68)"/><circle fill="#E5D8BD" stroke="#333" cx="-84.39" cy="10.13" r="2.63" transform="translate(685.93 145)"/><circle fill="#E5D8BD" stroke="#AAA" cx="-88.06" cy="13.69" r="2.68" transform="translate(715.71 116.13)"/><circle fill="#E5D8BD" stroke="#333" cx="-86.83" cy="10.13" r="2.63" transform="translate(705.79 145)"/><circle fill="#E5D8BD" stroke="#333" cx="-89.28" cy="10.13" r="2.63" transform="translate(725.64 145)"/><circle fill="#FDDAEC" stroke="#AAA" cx="-92.94" cy="16.67" r="2.68" transform="translate(755.43 91.85)"/><circle fill="#FDDAEC" stroke="#333" cx="-91.72" cy="10.13" r="2.63" transform="translate(745.5 145)"/><circle fill="#FDDAEC" stroke="#333" cx="-94.16" cy="10.13" r="2.63" transform="translate(765.36 145)"/><circle fill="#BBB" stroke="#AAA" cx="-97.83" cy="19.54" r="2.68" transform="translate(795.14 68.53)"/><circle fill="#F2F2F2" stroke="#333" cx="-96.61" cy="10.13" r="2.63" transform="translate(785.21 145)"/><circle fill="#B3CDE3" stroke="#333" cx="-99.05" cy="10.13" r="2.63" transform="translate(805.07 145)"/><path fill="none" stroke="#999" stroke-width="2" stroke-opacity=".5" stroke-dasharray="3,1" d="M105.24 96.67h609.49"/><path fill="none" stroke="#333" d="M105.24 155.13h-4.39"/><text transform="translate(94.32 157.38)" font-family="'Arial'" font-size="7.02">0</text><path fill="none" stroke="#333" d="M105.24 90.68h-4.39"/><text transform="translate(94.32 92.92)" font-family="'Arial'" font-size="7.02">2</text><path fill="none" stroke="#333" d="M105.24 63.97h-4.39"/><text transform="translate(94.32 66.22)" font-family="'Arial'" font-size="7.02">4</text><g><path fill="none" stroke="#333" d="M105.24 43.5h-4.39"/><text transform="translate(94.32 45.73)" font-family="'Arial'" font-size="7.02">6</text></g><path stroke="#333" d="M105.24 32.36h0v122.77h0"/><text transform="translate(55.53 88.48)" font-family="'Arial'" font-size="8.77">Cluster</text><text transform="translate(50.65 99)" font-family="'Arial'" font-size="8.77">distance</text></g></svg>