<svg xmlns="http://www.w3.org/2000/svg" width="46" height="46" viewBox="0 0 46 46"><title>btn_google_light_normal_ios</title><path fill="#4285F4" d="M45.082 23.523c0-1.63-.15-3.2-.42-4.705H23v8.896h12.38c-.536 2.875-2.155 5.313-4.59 6.943v5.77h7.433c4.347-4.003 6.86-9.9 6.86-16.904z"/><path fill="#34A853" d="M23 46c6.21 0 11.414-2.06 15.223-5.572l-7.434-5.77c-2.06 1.38-4.695 2.193-7.79 2.193-5.99 0-11.06-4.043-12.87-9.48H2.446v5.96C6.23 40.846 14.01 46 23 46z"/><path fill="#FBBC05" d="M10.13 27.37c-.46-1.38-.722-2.852-.722-4.37 0-1.516.263-2.99.722-4.37v-5.96H2.446C.89 15.776 0 19.29 0 23s.89 7.223 2.446 10.33l7.684-5.96z"/><path fill="#EA4335" d="M23 9.148c3.377 0 6.41 1.16 8.792 3.438L38.39 5.99C34.405 2.278 29.2 0 23 0 14.01 0 6.23 5.153 2.446 12.67l7.684 5.96c1.81-5.437 6.88-9.482 12.87-9.482z"/><path fill="none" d="M0 0h46v46H0V0z"/></svg>