<svg xmlns="http://www.w3.org/2000/svg" version="1.2" baseProfile="tiny" width="36" height="36" viewBox="0 0 36 36"><path fill="#0076B3" d="M33.3 0H2.7C1.2 0 0 1.2 0 2.6v30.8C0 34.8 1.2 36 2.7 36h30.7c1.5 0 2.7-1.2 2.7-2.6V2.6C36 1.2 34.8 0 33.3 0z"/><path fill="#FFF" d="M5.3 13.5h5.3v17.2H5.3V13.5zM8 5c1.7 0 3.1 1.4 3.1 3.1 0 1.7-1.4 3.1-3.1 3.1-1.7 0-3.1-1.4-3.1-3.1C4.9 6.3 6.3 5 8 5M14 13.5h5.1v2.3h.1c.7-1.4 2.5-2.8 5.1-2.8 5.4 0 6.4 3.6 6.4 8.2v9.4h-5.3v-8.4c0-2 0-4.6-2.8-4.6s-3.2 2.2-3.2 4.4v8.5H14v-17z"/></svg>